# This file uses centimeters as units for non-parametric coordinates.

v 0.923880 -1.000000 -0.382683
v 0.707107 -1.000000 -0.707106
v 0.382684 -1.000000 -0.923879
v 0.000001 -1.000000 -1.000000
v -0.382683 -1.000000 -0.923880
v -0.707106 -1.000000 -0.707107
v -0.923879 -1.000000 -0.382684
v -1.000000 -1.000000 -0.000000
v -0.923880 -1.000000 0.382683
v -0.707107 -1.000000 0.707107
v -0.382684 -1.000000 0.923879
v -0.000000 -1.000000 1.000000
v 0.382683 -1.000000 0.923880
v 0.707107 -1.000000 0.707107
v 0.923880 -1.000000 0.382683
v 1.000000 -1.000000 0.000000
v 0.000000 -2.000000 0.000000
v 0.000000 1.000000 0.000000
vt 0.730970 0.154329
vt 0.676777 0.073223
vt 0.595671 0.019030
vt 0.500000 0.000000
vt 0.404329 0.019030
vt 0.323223 0.073223
vt 0.269030 0.154329
vt 0.250000 0.250000
vt 0.269030 0.345671
vt 0.323223 0.426777
vt 0.404329 0.480970
vt 0.500000 0.500000
vt 0.595671 0.480970
vt 0.676777 0.426777
vt 0.730970 0.345671
vt 0.750000 0.250000
vt 0.250000 0.500000
vt 0.281250 0.500000
vt 0.312500 0.500000
vt 0.343750 0.500000
vt 0.375000 0.500000
vt 0.406250 0.500000
vt 0.437500 0.500000
vt 0.468750 0.500000
vt 0.500000 0.500000
vt 0.531250 0.500000
vt 0.562500 0.500000
vt 0.593750 0.500000
vt 0.625000 0.500000
vt 0.656250 0.500000
vt 0.687500 0.500000
vt 0.718750 0.500000
vt 0.750000 0.500000
vt 0.500000 0.250000
vt 0.500000 1.000000
vn 0.500000 -0.707107 -0.500000
vn 0.653282 -0.707107 -0.270598
vn -0.000000 -1.000000 0.000000
vn 0.270598 -0.707107 -0.653281
vn 0.000000 -0.707107 -0.707107
vn -0.270598 -0.707107 -0.653282
vn -0.500000 -0.707107 -0.500000
vn -0.653281 -0.707107 -0.270598
vn -0.707107 -0.707107 -0.000000
vn -0.653282 -0.707107 0.270598
vn -0.500000 -0.707107 0.500000
vn -0.270598 -0.707107 0.653281
vn -0.000000 -0.707107 0.707107
vn 0.270598 -0.707107 0.653282
vn 0.500000 -0.707107 0.500000
vn 0.653282 -0.707107 0.270598
vn 0.707107 -0.707107 0.000000
vn 0.826343 0.447214 -0.342282
vn 0.632456 0.447214 -0.632455
vn 0.000000 1.000000 -0.000001
vn 0.342283 0.447214 -0.826343
vn 0.000000 0.447214 -0.894427
vn -0.342282 0.447214 -0.826343
vn -0.632455 0.447214 -0.632456
vn -0.826343 0.447214 -0.342283
vn -0.894427 0.447214 -0.000000
vn -0.826343 0.447214 0.342282
vn -0.632456 0.447214 0.632455
vn -0.342283 0.447214 0.826343
vn -0.000000 0.447214 0.894427
vn 0.342282 0.447214 0.826343
vn 0.632455 0.447214 0.632456
vn 0.826343 0.447214 0.342283
vn 0.894427 0.447214 0.000000
f 2/2/1 1/1/2 17/34/3
f 3/3/4 2/2/1 17/34/3
f 4/4/5 3/3/4 17/34/3
f 5/5/6 4/4/5 17/34/3
f 6/6/7 5/5/6 17/34/3
f 7/7/8 6/6/7 17/34/3
f 8/8/9 7/7/8 17/34/3
f 9/9/10 8/8/9 17/34/3
f 10/10/11 9/9/10 17/34/3
f 11/11/12 10/10/11 17/34/3
f 12/12/13 11/11/12 17/34/3
f 13/13/14 12/12/13 17/34/3
f 14/14/15 13/13/14 17/34/3
f 15/15/16 14/14/15 17/34/3
f 16/16/17 15/15/16 17/34/3
f 1/1/2 16/16/17 17/34/3
f 1/17/18 2/18/19 18/35/20
f 2/18/19 3/19/21 18/35/20
f 3/19/21 4/20/22 18/35/20
f 4/20/22 5/21/23 18/35/20
f 5/21/23 6/22/24 18/35/20
f 6/22/24 7/23/25 18/35/20
f 7/23/25 8/24/26 18/35/20
f 8/24/26 9/25/27 18/35/20
f 9/25/27 10/26/28 18/35/20
f 10/26/28 11/27/29 18/35/20
f 11/27/29 12/28/30 18/35/20
f 12/28/30 13/29/31 18/35/20
f 13/29/31 14/30/32 18/35/20
f 14/30/32 15/31/33 18/35/20
f 15/31/33 16/32/34 18/35/20
f 16/32/34 1/33/18 18/35/20
